<svg width="1000" height="1000" viewBox="0 0 1000 1000" fill="none" xmlns="http://www.w3.org/2000/svg">
<g clip-path="url(#clip0_152_168)">
<circle cx="500" cy="500" r="500" fill="black"/>
<path d="M517.282 768.398V758.404H551.878V243.301H517.282V231H651.055C714.097 231 745.618 289.43 745.618 344.015V388.606C745.618 452.417 694.108 490.089 664.893 491.627C697.952 491.627 751 530.836 751 610.023V641.545C751 725.345 705.64 768.398 651.055 768.398H517.282ZM589.55 485.476H640.291C669.506 485.476 707.178 455.493 707.178 397.063V339.402C707.178 290.198 693.339 243.301 646.442 243.301H589.55V485.476ZM712.559 650.002V600.798C712.559 523.917 671.044 497.777 641.829 497.777H589.55V758.404H648.748C685.651 758.404 712.559 722.27 712.559 650.002Z" fill="white"/>
<path d="M250 768.398V756.097H284.596V243.301H250V231H359.171V243.301H324.575V485.476L442.971 243.301H411.45V231H496.019V243.301H458.348L353.021 461.643L476.799 756.097H514.471V768.398H406.837V756.097H436.052L324.575 489.32V756.097H359.171V768.398H250Z" fill="white"/>
</g>
<defs>
</defs>
</svg>
